# xmcd
#
# Track frame offsets:
#	150
#	17588
#	30079
#	46892
#	63790
#	79265
#	91891
#	115182
#	142271
#	160191
#	181251
#	198720
#	215961
#	232746
#	250808
#	269140
#	290218
#	306872
#	325430
#
# Disc length: 4576 seconds
#
# Revision: 0
# Processed by: cddbd v1.4PL0 Copyright (c) Steve Scherf et al.
# Submitted via: dBpowerAMP V4.0
#
DISCID=1611de13
DTITLE=Dance  Movie - O melhor dos Filmes
DYEAR=2003
DGENRE=Ballad
TTITLE0=flashdance ......what a feeling- irene cara
TTITLE1=you´re the one that i want- John travolta  e Olívia Newton john
TTITLE2=Glória- Laura Branican
TTITLE3=Footlose- Kennny Loggins
TTITLE4=Xanadu- Olívia Newton John
TTITLE5=La Bamba- Los Lobos
TTITLE6=Fame- Irene Cara
TTITLE7=Nowhere Fast-Fire Inc
TTITLE8=Maniac- Michael Sambello
TTITLE9=Stayin´Live- Bee Gees
TTITLE10=Far From Over- Frank Stallone
TTITLE11=The Power Of Love- Huey Lewis e The News
TTITLE12=The  Heat is on - Glenn Frey
TTITLE13=Eye Of The Tiger- Survivor
TTITLE14=Ghostbusters- Ray Parker Jr
TTITLE15=(I´ve Had) The Time Of My Life- Bill Medley e J.Warnes
TTITLE16=I´m  Alive -Eletric Light Orquestra
TTITLE17=I Can Dream About You- Dan Hertman
TTITLE18=Winnes Takes It All- Sammy Hagar
EXTD=
EXTT0=
EXTT1=
EXTT2=
EXTT3=
EXTT4=
EXTT5=
EXTT6=
EXTT7=
EXTT8=
EXTT9=
EXTT10=
EXTT11=
EXTT12=
EXTT13=
EXTT14=
EXTT15=
EXTT16=
EXTT17=
EXTT18=
PLAYORDER=
